<svg id="Layer_2" data-name="Layer 2" xmlns="http://www.w3.org/2000/svg" xmlns:xlink="http://www.w3.org/1999/xlink" viewBox="0 0 361 99.7"><defs><style>.cls-1{fill:none;}.cls-2,.cls-5,.cls-6{fill:#c74e17;}.cls-3{clip-path:url(#clip-path);}.cls-4{clip-path:url(#clip-path-2);}.cls-5{opacity:0.4;}.cls-6{font-size:66px;font-family:FuturaBT-Bold, Futura Md BT;letter-spacing:0.06em;}.cls-6,.cls-7{font-weight:700;}.cls-7{font-size:18px;fill:#1d1d1b;font-family:Garamond-Bold, Garamond;letter-spacing:0.06em;}.cls-8{letter-spacing:0.1em;}.cls-9{letter-spacing:0.04em;}.cls-10{letter-spacing:0.09em;}.cls-11{letter-spacing:0.06em;}</style><clipPath id="clip-path"><rect class="cls-1" x="-487.3" y="-1243.9" width="562" height="544"/></clipPath><clipPath id="clip-path-2"><path class="cls-2" d="M18.8,92.9A11.5,11.5,0,0,0,30.2,81.3a11.7,11.7,0,0,0-1.7-6.1L67.1,40.7a7.1,7.1,0,0,0,4.7,1.7,7.6,7.6,0,1,0-3.7-14.1L59.7,19a7.4,7.4,0,1,0-5.8,2.9,6.8,6.8,0,0,0,4-1.2l8.3,9.2a6.9,6.9,0,0,0-1.7,3.4H46.8a14.7,14.7,0,0,0-29.4,1.5,14.7,14.7,0,0,0,29.4,1H64.4a6.8,6.8,0,0,0,1.1,3.1L26.9,73.3a10.9,10.9,0,0,0-8.1-3.5,11.6,11.6,0,0,0,0,23.1ZM32,47.2A12.4,12.4,0,1,1,44.3,34.8,12.4,12.4,0,0,1,32,47.2Z"/></clipPath></defs><title>FIBO_Logo</title><path class="cls-2" d="M18.8,92.9A11.5,11.5,0,0,0,30.2,81.3a11.7,11.7,0,0,0-1.7-6.1L67.1,40.7a7.1,7.1,0,0,0,4.7,1.7,7.6,7.6,0,1,0-3.7-14.1L59.7,19a7.4,7.4,0,1,0-5.8,2.9,6.8,6.8,0,0,0,4-1.2l8.3,9.2a6.9,6.9,0,0,0-1.7,3.4H46.8a14.7,14.7,0,0,0-29.4,1.5,14.7,14.7,0,0,0,29.4,1H64.4a6.8,6.8,0,0,0,1.1,3.1L26.9,73.3a10.9,10.9,0,0,0-8.1-3.5,11.6,11.6,0,0,0,0,23.1ZM32,47.2A12.4,12.4,0,1,1,44.3,34.8,12.4,12.4,0,0,1,32,47.2Z"/><g class="cls-4"><path class="cls-5" d="M32,22.5A12.4,12.4,0,1,0,44.3,34.8,12.3,12.3,0,0,0,32,22.5Z"/><path class="cls-5" d="M7.3,81.3A11.5,11.5,0,0,1,18.8,69.8a10.9,10.9,0,0,1,8.1,3.5L65.5,38.9a6.8,6.8,0,0,1-1.1-3.1H46.8a14.6,14.6,0,1,1,0-2.5H64.5a6.9,6.9,0,0,1,1.7-3.4l-8.3-9.2a6.8,6.8,0,0,1-4,1.2A7.8,7.8,0,1,1,59.7,19l8.4,9.3a7.5,7.5,0,1,1,3.7,14.1,7.1,7.1,0,0,1-4.7-1.7L28.5,75.2a11.7,11.7,0,0,1,1.7,6.1,11.5,11.5,0,1,1-22.9,0"/></g><text class="cls-6" transform="translate(100.1 57) scale(1.03 1)" style="font-family: Roboto">FIBO</text><text class="cls-7" transform="translate(103.6 87.3) scale(0.77 1)">Financial Industy Business Ontology</text></svg>